inDegrees=yes
name=ik_lifting_orientations
DataType=double
version=3
OpenSimVersion=4.5-2024-01-10-34fd6af
endheader
time	pelvis_tilt	pelvis_list	pelvis_rotation	pelvis_tx	pelvis_ty	pelvis_tz	hip_flexion_r	hip_adduction_r	hip_rotation_r	knee_angle_r	knee_angle_r_beta	ankle_angle_r	subtalar_angle_r	mtp_angle_r	hip_flexion_l	hip_adduction_l	hip_rotation_l	knee_angle_l	knee_angle_l_beta	ankle_angle_l	subtalar_angle_l	mtp_angle_l	lumbar_extension	lumbar_bending	lumbar_rotation	arm_flex_r	arm_add_r	arm_rot_r	elbow_flex_r	pro_sup_r	wrist_flex_r	wrist_dev_r	arm_flex_l	arm_add_l	arm_rot_l	elbow_flex_l	pro_sup_l	wrist_flex_l	wrist_dev_l
0.73	0.0511177746445989	8.497930104168434	-94.28339801556065	0	0.9399999998679526	0	45.00084362768385	-10.17745832013148	0	60.22519437045962	1.051127934418074	-5.042724830474102	0	0	45.00084362768385	-10.17745832013148	0	60.22519437045962	1.051127934418074	-5.042724830474102	0	0	-12.70514518210763	0.1760410318014012	-7.620510703720813	26.37966184986946	-0.1261487841626828	20.15730148546796	3.2440000480057	1.373510881520654	0	0	0	-11.21593296032667	0	88.65750079454114	1.373510881520654	0	0
0.74	-0.02195111041226345	9.007022522837977	-93.59207211760334	0	0.9399999998679526	0	45.00084301990777	-10.17701224378622	0	60.22506716548062	1.051125714272365	-5.042584858739375	0	0	45.00084301990777	-10.17701224378622	0	60.22506716548062	1.051125714272365	-5.042584858739375	0	0	-14.01546886011704	0.5003097797152687	-7.979411224131225	28.1996347036231	0.356649925335346	20.28038443186533	3.335425374415245	1.372822202034623	0	0	0	-11.21733019457603	0	88.65817383114094	1.372822202034623	0	0
0.75	-0.1546702302626604	9.762033263760451	-93.16202113663711	0	0.9399999998679526	0	45.00084280498066	-10.17685481937827	0	60.22502207939582	1.051124927371739	-5.0425354725023	0	0	45.00084280498066	-10.17685481937827	0	60.22502207939582	1.051124927371739	-5.0425354725023	0	0	-13.99985485815174	0.7866147156725291	-8.195211435506929	28.85647988082915	0.8205155245070905	20.49821824249136	3.463786749174567	1.37257844943146	0	0	0	-11.21782514040275	0	88.65841204708066	1.37257844943146	0	0
0.76	-0.2612362591964568	11.14336236979704	-93.70513663002929	0	0.9399999998679526	0	45.0008422647789	-10.17646067812207	0	60.22490875420809	1.051122949474087	-5.042412033391001	0	0	45.0008422647789	-10.17646067812207	0	60.22490875420809	1.051122949474087	-5.042412033391001	0	0	-14.13278218352374	0.8306998068296928	-7.33982278515802	30.359610988197	1.377952676364447	20.50779005054346	3.513367890605067	1.371965629745286	0	0	0	-11.21906953681998	0	88.65901094701852	1.371965629745286	0	0
0.77	-0.420879344828593	12.83575017541768	-93.95495132619897	0	0.9399999998679526	0	45.00084175385946	-10.17608846794873	0	60.22480156361863	1.051121078645374	-5.042295539704984	0	0	45.00084175385946	-10.17608846794873	0	60.22480156361863	1.051121078645374	-5.042295539704984	0	0	-14.31706282780888	0.8813050988745664	-6.68288040156708	32.1439810714731	2.009012432746756	20.49988733201205	3.577861082385072	1.371385931719898	0	0	0	-11.22024678366049	0	88.65957747763559	1.371385931719898	0	0
0.78	-0.6039794891362051	14.31288993054512	-93.73710074520099	0	0.9399999998679526	0	45.00084119640227	-10.1756822705281	0	60.2246847180241	1.051119039305033	-5.042168435997361	0	0	45.00084119640227	-10.1756822705281	0	60.2246847180241	1.051119039305033	-5.042168435997361	0	0	-15.00375735457444	1.002316016444768	-6.468292936294462	34.21111467510101	2.689797396088819	20.42733252009259	3.530625157784369	1.370753585836539	0	0	0	-11.22153065151836	0	88.66019546024903	1.370753585836539	0	0
0.79	-0.8753018522578225	15.61847706160176	-93.1914219191635	0	0.9399999998679526	0	45.00084061868552	-10.1752617582492	0	60.2245636497004	1.051116926264165	-5.042036925286825	0	0	45.00084061868552	-10.1752617582492	0	60.2245636497004	1.051116926264165	-5.042036925286825	0	0	-15.96311093416569	1.445565056124368	-6.657284269771623	36.37942187269186	3.308461965305566	20.57008834861824	3.495807307962952	1.370098217307262	0	0	0	-11.22286128083017	0	88.66083594257009	1.370098217307262	0	0
0.8	-1.114169103553571	16.7969057859523	-93.09806442901991	0	0.9399999998679526	0	45.00084001353715	-10.17482257485444	0	60.22443674944334	1.051114711436858	-5.041899727918886	0	0	45.00084001353715	-10.17482257485444	0	60.22443674944334	1.051114711436858	-5.041899727918886	0	0	-17.23433836602761	1.913502360394843	-6.456964732710145	38.76380879533561	3.775430565659691	20.77530737003645	3.575343119399852	1.369411428644022	0	0	0	-11.22425610454611	0	88.66150713135526	1.369411428644022	0	0
0.8100000000000001	-1.179085339186931	17.8543436871608	-93.7123261797536	0	0.9399999998679526	0	45.00083928395312	-10.174293744421	0	60.22428379277322	1.051112041839351	-5.041734633237303	0	0	45.00083928395312	-10.174293744421	0	60.22428379277322	1.051112041839351	-5.041734633237303	0	0	-18.47149034116293	2.093657758004304	-5.887944314747502	40.9667367828084	4.210178389880531	20.96741543704297	3.702217525672999	1.368583354896148	0	0	0	-11.22593789918998	0	88.66231639604921	1.368583354896148	0	0
0.82	-1.201716305506788	18.79382336918606	-94.20136085074948	0	0.9399999998679526	0	45.00083857840237	-10.17378350908836	0	60.22413582754225	1.051109459358892	-5.041575493239184	0	0	45.00083857840237	-10.17378350908836	0	60.22413582754225	1.051109459358892	-5.041575493239184	0	0	-19.61426576964196	1.997955715973761	-5.423862048846172	42.98558610867767	4.780319081155814	20.85083718261721	3.812478369949751	1.36778230877319	0	0	0	-11.22756512714716	0	88.66309924704423	1.36778230877319	0	0
0.83	-1.380303347795774	19.72768794443125	-93.78607407637523	0	0.9399999998679526	0	45.00083789861738	-10.17329282870122	0	60.22399324851233	1.051106970885376	-5.041422576930073	0	0	45.00083789861738	-10.17329282870122	0	60.22399324851233	1.051106970885376	-5.041422576930073	0	0	-20.61477887048154	2.205164930525991	-5.647806469643553	44.92766882950819	5.39701500414467	20.52198126665293	3.85370424653848	1.367010342135011	0	0	0	-11.22913349624154	0	88.66385367908285	1.367010342135011	0	0
0.84	-1.662955108620943	20.77533221491996	-92.99509024172245	0	0.9399999998679526	0	45.00083730921316	-10.17286817788206	0	60.22386959953313	1.051104812803572	-5.041290340451031	0	0	45.00083730921316	-10.17286817788206	0	60.22386959953313	1.051104812803572	-5.041290340451031	0	0	-21.88070133396346	2.618699658294779	-5.926343286342205	47.14673450634108	5.917677159932857	20.10448317202244	3.966056407524388	1.366340851510805	0	0	0	-11.23049387208527	0	88.66450796277682	1.366340851510805	0	0
0.85	-1.852405772167389	21.82321290397588	-92.71897644083745	0	0.9399999998679526	0	45.00083674040575	-10.17245948069105	0	60.22375018401491	1.051102728609601	-5.041163197930327	0	0	45.00083674040575	-10.17245948069105	0	60.22375018401491	1.051102728609601	-5.041163197930327	0	0	-22.59580392016567	2.882015281855735	-5.958603186361738	48.83167191491188	6.372267539922206	19.903398389792	4.099623892935002	1.365694465919448	0	0	0	-11.23180771097777	0	88.66513966626461	1.365694465919448	0	0
0.86	-2.005634968399086	23.01202707184196	-92.8416027265343	0	0.9399999998679526	0	45.00083618778187	-10.17206309123209	0	60.22363414515787	1.051100703349485	-5.041039972678548	0	0	45.00083618778187	-10.17206309123209	0	60.22363414515787	1.051100703349485	-5.041039972678548	0	0	-23.17096668199032	2.935462164574651	-5.608504121458505	50.45930324579126	6.862585781613704	19.74855828811291	4.211026901097782	1.365066334188333	0	0	0	-11.23308461886804	0	88.66575353052119	1.365066334188333	0	0
0.87	-2.118870835422055	24.06586547437652	-92.98233732680114	0	0.9399999998679526	0	45.00083562542446	-10.17166025332973	0	60.22351606863479	1.051098642525388	-5.040914820103608	0	0	45.00083562542446	-10.17166025332973	0	60.22351606863479	1.051098642525388	-5.040914820103608	0	0	-23.75818124065102	3.00143470355916	-5.392995367300014	52.03247234437783	7.323471514383426	20.01764082859975	4.122600935690135	1.364427061173378	0	0	0	-11.23438425078706	0	88.66637828300242	1.364427061173378	0	0
0.88	-2.110631411774741	24.87600695574821	-93.35160600349236	0	0.9399999998679526	0	45.00083504291337	-10.17124285007295	0	60.22339388731478	1.05109651005907	-5.040785169314725	0	0	45.00083504291337	-10.17124285007295	0	60.22339388731478	1.05109651005907	-5.040785169314725	0	0	-24.78043353081754	2.693936311204076	-4.762853691100357	53.80496471288296	7.599280336962099	20.17579497150549	3.995534968839249	1.363765061408786	0	0	0	-11.23572974133351	0	88.66702524600929	1.363765061408786	0	0
0.89	-1.993617434364262	25.63451822850648	-94.04157598609319	0	0.9399999998679526	0	45.00083436211826	-10.17075615028591	0	60.22325104962938	1.051094017071164	-5.040634138039669	0	0	45.00083436211826	-10.17075615028591	0	60.22325104962938	1.051094017071164	-5.040634138039669	0	0	-25.84726742943838	2.157669694607125	-3.943120096019872	55.52656291108097	7.619646709203721	20.06417720970909	3.923400173316749	1.362991137193191	0	0	0	-11.23730299572415	0	88.66778159121172	1.362991137193191	0	0
0.9	-1.946361464575406	26.32633184261101	-94.54218815106356	0	0.9399999998679526	0	45.00083379406436	-10.17035142959078	0	60.2231317414702	1.051091934750962	-5.040508696305817	0	0	45.00083379406436	-10.17035142959078	0	60.2231317414702	1.051091934750962	-5.040508696305817	0	0	-26.91036633426769	1.700019032395825	-3.270430847148792	57.23822792783835	7.621630258538788	19.78069207742523	3.829636969184051	1.362344994961618	0	0	0	-11.23861704205923	0	88.66841305690504	1.362344994961618	0	0
0.91	-1.917137471626877	27.08337141435813	-94.90088928140243	0	0.9399999998679526	0	45.00083321303151	-10.16993726391724	0	60.223009805204	1.051089806561639	-5.04038033528647	0	0	45.00083321303151	-10.16993726391724	0	60.223009805204	1.051089806561639	-5.04038033528647	0	0	-27.64407897601345	1.255899238644392	-2.897071775726168	58.7806890459379	7.695372730114673	19.05013353607633	3.691175734697675	1.361684230343156	0	0	0	-11.23996058891367	0	88.66905881284777	1.361684230343156	0	0
0.92	-1.889538906117347	27.8954955076587	-95.27377035843662	0	0.9399999998679526	0	45.00083284564919	-10.16967537097307	0	60.22293268281126	1.051088460521958	-5.040299160206565	0	0	45.00083284564919	-10.16967537097307	0	60.22293268281126	1.051088460521958	-5.040299160206565	0	0	-27.68413252979247	0.8022231957323617	-2.50397822561667	59.73777926499755	7.721385637546741	18.09431965428859	3.599142657264409	1.361266371241306	0	0	0	-11.24081038635506	0	88.66946718066006	1.361266371241306	0	0
0.93	-1.735957486065174	28.46412429777367	-95.98812184293321	0	0.9399999998679526	0	45.00083249263128	-10.16942396648137	0	60.22285857199809	1.051087167044257	-5.040221269821709	0	0	45.00083249263128	-10.16942396648137	0	60.22285857199809	1.051087167044257	-5.040221269821709	0	0	-27.83632877206301	0.1556922414542659	-1.833126677363229	60.65906511924603	7.568536320517209	16.96468439022774	3.494266000366483	1.360864804938266	0	0	0	-11.24162710214938	0	88.66985962575244	1.360864804938266	0	0
0.9399999999999999	-1.659374675734596	29.0420618408389	-96.4363667248272	0	0.9399999998679526	0	45.00083218761269	-10.16920718689055	0	60.22279448117421	1.05108604844836	-5.04015414958645	0	0	45.00083218761269	-10.16920718689055	0	60.22279448117421	1.05108604844836	-5.04015414958645	0	0	-28.49695283167203	-0.1641992979380409	-1.410053090029763	62.16536491944364	7.505446781789953	16.06423010329036	3.271344799885217	1.360517689581842	0	0	0	-11.24233330854567	0	88.67019885670879	1.360517689581842	0	0
0.95	-1.594120831956113	29.54104754282991	-96.76201229215641	0	0.9399999998679526	0	45.00083180158435	-10.16893264081072	0	60.22271347755778	1.051084634668547	-5.040069153670638	0	0	45.00083180158435	-10.16893264081072	0	60.22271347755778	1.051084634668547	-5.040069153670638	0	0	-29.35775095681902	-0.5529965881638345	-1.106952550486191	63.64685900087425	7.426022178395662	15.20499104789326	3.163987871185024	1.360078569647481	0	0	0	-11.24322634838689	0	88.67062800243791	1.360078569647481	0	0
0.96	-1.537036600408885	29.98166181927302	-97.08834546988419	0	0.9399999998679526	0	45.0008314651114	-10.16869369694224	0	60.22264284024924	1.051083401814939	-5.039995219123703	0	0	45.0008314651114	-10.16869369694224	0	60.22264284024924	1.051083401814939	-5.039995219123703	0	0	-29.96746567457371	-0.8840273748558887	-0.6636543877235559	64.84028689884457	7.148096774767041	14.24286613247674	2.990787885490649	1.359695717482196	0	0	0	-11.24400511012595	0	88.67100215847388	1.359695717482196	0	0
